<svg width="22" height="22" viewBox="0 0 22 22" fill="none" xmlns="http://www.w3.org/2000/svg">
    <path fill-rule="evenodd" clip-rule="evenodd" d="M10.974 1.889c-1.424 0-2.607.05-3.566.247-.972.199-1.772.558-2.374 1.217-.594.652-.925 1.52-1.115 2.597-.19 1.076-.248 2.425-.248 4.098 0 .646-.002 1.252-.003 1.82-.004 2.689-.008 4.537.113 5.743.073.719.197 1.33.472 1.768.147.236.343.431.597.561.25.128.514.171.766.171.577 0 1.136-.317 1.588-.63.44-.307.904-.703 1.343-1.078l.103-.089c.485-.413.94-.795 1.367-1.075.443-.291.754-.402.957-.402.202 0 .514.111.957.402.427.28.881.662 1.366 1.075l.104.089c.438.375.902.771 1.343 1.077.451.314 1.01.631 1.587.631.252 0 .516-.043.766-.17.254-.13.45-.326.598-.562.274-.439.398-1.05.47-1.768.122-1.206.119-3.054.114-5.743v-.001a923.56 923.56 0 0 1-.002-1.819c0-1.673-.06-3.022-.249-4.098-.19-1.077-.52-1.945-1.115-2.597-.601-.659-1.402-1.018-2.374-1.217-.96-.196-2.142-.247-3.565-.247zm-5.97 8.159c0-1.66.06-2.912.228-3.866.168-.953.432-1.54.787-1.93.348-.38.851-.645 1.656-.81.817-.167 1.883-.22 3.299-.22 1.415 0 2.48.053 3.298.22.805.165 1.309.43 1.656.81.355.39.62.977.787 1.93.168.954.228 2.207.228 3.866l.002 1.85c.005 2.69.008 4.448-.106 5.58-.07.696-.176 1.036-.275 1.194-.039.062-.065.076-.074.081a.355.355 0 0 1-.159.025c-.132 0-.394-.092-.826-.393-.384-.266-.798-.62-1.254-1.009l-.089-.076c-.474-.405-.991-.842-1.5-1.176-.492-.323-1.08-.62-1.688-.62-.61 0-1.197.297-1.69.62-.507.334-1.024.77-1.5 1.176l-.088.076c-.455.389-.87.743-1.253 1.01-.433.3-.695.392-.827.392a.355.355 0 0 1-.158-.025c-.01-.005-.036-.019-.075-.081-.098-.158-.205-.498-.275-1.195-.114-1.131-.11-2.889-.106-5.578l.002-1.851zM7.927 7.86a.667.667 0 0 0 0 1.334h6.093a.667.667 0 0 0 0-1.334H7.927z" fill="#181818"/>
</svg>
