<svg width="24" height="24" viewBox="0 0 24 24" fill="none" xmlns="http://www.w3.org/2000/svg">
    <path fill-rule="evenodd" clip-rule="evenodd" d="M2 12C2 6.486 6.486 2 12 2s10 4.486 10 10-4.486 10-10 10S2 17.514 2 12zm10 8c-4.411 0-8-3.589-8-8s3.589-8 8-8 8 3.589 8 8-3.589 8-8 8zm2.584-11.928a1.002 1.002 0 0 1 1.099.246.993.993 0 0 1 .242 1.102l-1.745 4.258c-.102.25-.301.447-.551.549l-4.213 1.7a1.002 1.002 0 0 1-.374.073 1 1 0 0 1-.713-.31l-.022-.02c-.011-.01-.022-.018-.031-.028l-.012-.018a.16.16 0 0 0-.011-.016.991.991 0 0 1-.178-1.028l1.745-4.258a.998.998 0 0 1 .55-.548l4.214-1.702zM11.51 11.47l-.714 1.742 1.692-.684.714-1.742-1.692.684z" fill="#fff"/>
    <mask id="dlmfl7yvea" style="mask-type:alpha" maskUnits="userSpaceOnUse" x="2" y="2" width="20" height="20">
        <path fill-rule="evenodd" clip-rule="evenodd" d="M2 12C2 6.486 6.486 2 12 2s10 4.486 10 10-4.486 10-10 10S2 17.514 2 12zm10 8c-4.411 0-8-3.589-8-8s3.589-8 8-8 8 3.589 8 8-3.589 8-8 8zm2.584-11.928a1.002 1.002 0 0 1 1.099.246.993.993 0 0 1 .242 1.102l-1.745 4.258c-.102.25-.301.447-.551.549l-4.213 1.7a1.002 1.002 0 0 1-.374.073 1 1 0 0 1-.713-.31l-.022-.02c-.011-.01-.022-.018-.031-.028l-.012-.018a.16.16 0 0 0-.011-.016.991.991 0 0 1-.178-1.028l1.745-4.258a.998.998 0 0 1 .55-.548l4.214-1.702zM11.51 11.47l-.714 1.742 1.692-.684.714-1.742-1.692.684z" fill="#fff"/>
    </mask>
</svg>
