<svg width="24" height="24" viewBox="0 0 24 24" fill="none" xmlns="http://www.w3.org/2000/svg">
    <path fill-rule="evenodd" clip-rule="evenodd" d="M3 7h1.185A2.995 2.995 0 0 0 7 9a2.995 2.995 0 0 0 2.815-2H21a1 1 0 1 0 0-2H9.815A2.995 2.995 0 0 0 7 3a2.995 2.995 0 0 0-2.815 2H3a1 1 0 1 0 0 2zm16 2a2.995 2.995 0 0 0-2.815 2H3a1 1 0 1 0 0 2h13.185A2.995 2.995 0 0 0 19 15c1.654 0 3-1.346 3-3s-1.346-3-3-3zm-5.185 8H21a1 1 0 1 1 0 2h-7.185A2.995 2.995 0 0 1 11 21a2.995 2.995 0 0 1-2.815-2H3a1 1 0 1 1 0-2h5.185A2.995 2.995 0 0 1 11 15c1.302 0 2.401.84 2.815 2z" fill="#E16D84"/>
    <mask id="uvpswut7wa" style="mask-type:luminance" maskUnits="userSpaceOnUse" x="2" y="3" width="20" height="19">
        <path fill-rule="evenodd" clip-rule="evenodd" d="M3 7h1.185A2.995 2.995 0 0 0 7 9a2.995 2.995 0 0 0 2.815-2H21a1 1 0 1 0 0-2H9.815A2.995 2.995 0 0 0 7 3a2.995 2.995 0 0 0-2.815 2H3a1 1 0 1 0 0 2zm16 2a2.995 2.995 0 0 0-2.815 2H3a1 1 0 1 0 0 2h13.185A2.995 2.995 0 0 0 19 15c1.654 0 3-1.346 3-3s-1.346-3-3-3zm-5.185 8H21a1 1 0 1 1 0 2h-7.185A2.995 2.995 0 0 1 11 21a2.995 2.995 0 0 1-2.815-2H3a1 1 0 1 1 0-2h5.185A2.995 2.995 0 0 1 11 15c1.302 0 2.401.84 2.815 2z" fill="#fff"/>
    </mask>
</svg>
