<svg width="12" height="12" viewBox="0 0 12 12" fill="none" xmlns="http://www.w3.org/2000/svg">
    <g clip-path="url(#cwvr8n0o7a)">
        <path d="M6 12c.94 0 1.78-.066 2.522-.198.742-.132 1.37-.312 1.888-.54.517-.228.912-.49 1.183-.786.271-.296.407-.61.407-.941 0-.285-.088-.55-.262-.794a2.628 2.628 0 0 0-.714-.66c-.301-.197-.64-.365-1.018-.506a7.704 7.704 0 0 0-1.18-.334 7.079 7.079 0 0 0-1.198-.14v.953a6.392 6.392 0 0 1 2.006.422c.303.121.549.263.738.425.188.162.283.34.283.532 0 .232-.116.442-.348.631-.232.19-.556.353-.97.492a8.082 8.082 0 0 1-1.476.324c-.568.076-1.188.115-1.861.115s-1.293-.038-1.861-.115a8.316 8.316 0 0 1-1.478-.321c-.417-.137-.74-.301-.968-.492-.228-.19-.342-.402-.342-.634 0-.192.093-.37.28-.532a2.57 2.57 0 0 1 .735-.425 6.443 6.443 0 0 1 2.006-.422v-.952c-.386.01-.783.057-1.192.139-.41.082-.802.193-1.18.334a5.16 5.16 0 0 0-1.018.505c-.3.196-.54.417-.717.66A1.326 1.326 0 0 0 0 9.536c0 .331.137.645.41.941.273.296.669.558 1.186.786.517.228 1.146.408 1.888.54.741.132 1.58.198 2.516.198zm.006-2.107c.063 0 .13-.054.203-.163a1.84 1.84 0 0 0 .204-.468c.063-.203.114-.448.153-.735a7.2 7.2 0 0 0 .06-.97V3.978H5.38v3.577c0 .36.02.684.059.97.039.288.091.533.156.736.065.203.134.36.206.468.073.109.141.163.204.163zm0-5.63a2.43 2.43 0 0 0 1.18-.29c.354-.192.636-.45.846-.772.21-.323.316-.679.316-1.067 0-.392-.105-.75-.316-1.072a2.306 2.306 0 0 0-.846-.773A2.429 2.429 0 0 0 6.006 0c-.437 0-.831.096-1.183.289-.352.192-.633.45-.844.773-.21.322-.315.68-.315 1.072 0 .388.105.744.315 1.067.21.322.492.58.844.772.352.193.746.29 1.183.29zM5.339 2.25a.81.81 0 0 1-.56-.219.657.657 0 0 1 0-1.021.82.82 0 0 1 .56-.214c.22 0 .41.071.567.214a.664.664 0 0 1 .236.508.68.68 0 0 1-.236.513.803.803 0 0 1-.567.22z" fill="#181818"/>
    </g>
    <defs>
        <clipPath id="cwvr8n0o7a">
            <path fill="#fff" d="M0 0h12v12H0z"/>
        </clipPath>
    </defs>
</svg>
