<svg width="40" height="40" viewBox="0 0 40 40" fill="none" xmlns="http://www.w3.org/2000/svg">
    <g clip-path="url(#m9uiim2caa)">
        <path fill-rule="evenodd" clip-rule="evenodd" d="M24 15c0 2.206-1.794 4-4 4s-4-1.794-4-4 1.794-4 4-4 4 1.794 4 4zm-4-2c1.103 0 2 .897 2 2s-.897 2-2 2-2-.897-2-2 .897-2 2-2zm7 15a1 1 0 1 1-2 0c0-2.757-2.243-5-5-5s-5 2.243-5 5a1 1 0 1 1-2 0c0-3.86 3.141-7 7-7s7 3.14 7 7z" fill="#C1C1C1"/>
    </g>
    <defs>
        <clipPath id="m9uiim2caa">
            <path fill="#fff" d="M0 0h40v40H0z"/>
        </clipPath>
    </defs>
</svg>
