<svg width="20" height="20" viewBox="0 0 20 20" fill="none" xmlns="http://www.w3.org/2000/svg">
    <path d="M5.366 2.773A2.418 2.418 0 0 1 6.484 2.5c.409.018 1.172.293 1.474.42 1.989.801 5.788 3.426 7.244 5.03.249.255.515.565.586.637.302.401.462.894.462 1.424 0 .472-.142.946-.426 1.329a7.466 7.466 0 0 1-.497.583l-.107.11c-1.491 1.658-5.202 4.155-7.084 4.957 0 .018-1.119.492-1.652.51h-.07c-.817 0-1.58-.474-1.972-1.24-.213-.419-.408-1.64-.426-1.658-.16-1.094-.266-2.768-.266-4.611 0-1.932.107-3.682.302-4.757 0-.018.195-1.003.32-1.33.195-.474.55-.875.994-1.13z" fill="#fff"/>
</svg>
