<svg width="16" height="16" viewBox="0 0 16 16" fill="none" xmlns="http://www.w3.org/2000/svg">
    <path d="M11.55 9.465a.718.718 0 0 0-.191.612l.533 3.107a.699.699 0 0 1-.27.683.633.633 0 0 1-.702.05l-2.657-1.459a.654.654 0 0 0-.3-.082h-.162a.47.47 0 0 0-.162.056L4.98 13.898a.67.67 0 0 1-.426.07c-.355-.071-.592-.427-.534-.803l.534-3.107a.73.73 0 0 0-.191-.618L2.197 7.23a.707.707 0 0 1-.161-.715.684.684 0 0 1 .533-.473l2.982-.455a.669.669 0 0 0 .528-.385l1.314-2.836a.656.656 0 0 1 .12-.17l.054-.044a.407.407 0 0 1 .096-.083l.066-.025L7.83 2h.252a.672.672 0 0 1 .528.379l1.331 2.823a.67.67 0 0 0 .498.385l2.982.455a.69.69 0 0 1 .546.473.71.71 0 0 1-.174.714L11.55 9.465z" fill="#fff"/>
</svg>
