<svg width="20" height="20" viewBox="0 0 20 20" fill="none" xmlns="http://www.w3.org/2000/svg">
    <path fill-rule="evenodd" clip-rule="evenodd" d="M3.4 9.526c0-3.4 2.818-6.156 6.294-6.156 3.475 0 6.293 2.756 6.293 6.156s-2.818 6.156-6.293 6.156c-3.476 0-6.294-2.756-6.294-6.156zM9.694 2C5.444 2 2 5.37 2 9.526c0 4.157 3.445 7.526 7.694 7.526a7.77 7.77 0 0 0 4.722-1.583l2.39 2.331a.711.711 0 0 0 .99-.001.674.674 0 0 0-.002-.969l-2.355-2.298a7.406 7.406 0 0 0 1.949-5.006C17.388 5.37 13.943 2 9.694 2z" fill="#D9D9D9"/>
</svg>
